<?xml version="1.0" standalone="no"?>
<!DOCTYPE svg PUBLIC "-//W3C//DTD SVG 20010904//EN"
 "http://www.w3.org/TR/2001/REC-SVG-20010904/DTD/svg10.dtd">
<svg version="1.0" xmlns="http://www.w3.org/2000/svg"
 width="74834.645669pt" height="72566.929134pt" viewBox="0 0 74834.645669 72566.929134"
 preserveAspectRatio="xMidYMid meet">
<metadata>
Created by potrace 1.13, written by Peter Selinger 2001-2015
</metadata>
<g transform="translate(0.000000,72566.929134) scale(7.086614,-7.086614)"
fill="#000000" stroke="none">
<path d="M5624 7715 l-26 -35 -47 0 -46 0 -290 -1261 -290 -1261 -398 7 -399
7 -167 77 -166 77 3 36 3 35 -53 6 -53 7 -26 0 -26 0 -7 -61 -7 -61 -15 6 -16
6 -9 0 -9 0 0 70 0 69 -42 11 -43 12 -160 44 -159 44 -12 0 -12 0 -27 -65 -28
-65 -9 0 -9 0 -212 62 -212 61 -4 3 -4 3 12 77 13 76 -5 4 -4 4 -474 130 -473
130 -13 0 -13 0 0 -15 0 -14 33 -9 32 -9 435 -118 435 -119 4 -3 5 -3 -13 -76
-13 -76 5 -4 4 -5 239 -69 238 -70 12 0 12 0 27 65 28 65 11 0 11 0 175 -49
175 -48 3 -71 3 -70 31 -6 31 -6 22 0 23 0 7 61 7 61 30 -6 30 -6 17 0 17 0
-4 -33 -4 -33 179 -82 178 -81 386 -7 387 -6 6 -46 6 -45 0 -11 0 -12 -29 -17
-29 -17 -143 10 -144 10 -27 0 -28 0 0 -15 0 -15 11 0 11 0 169 -11 169 -11
36 23 36 22 -4 58 -4 59 12 0 12 0 7 28 7 27 279 1215 280 1215 6 28 6 27 43
0 43 0 25 33 26 34 502 -125 503 -124 1045 -242 1045 -241 3 -27 3 -27 32 -9
32 -9 138 -34 139 -34 23 26 22 27 44 -56 44 -55 -3 -16 -4 -16 -389 -1685
-390 -1685 -4 -16 -5 -16 -27 5 -26 5 -23 -28 -22 -28 -26 7 -26 6 0 25 0 25
-4 0 -5 0 -151 35 -151 35 -13 0 -14 0 -5 -21 -6 -21 -42 7 -41 7 -9 -13 -8
-13 -122 29 -122 30 -5 17 -4 17 -131 31 -132 31 -93 21 -94 22 -8 -14 -9 -14
-98 23 -98 24 -32 9 -33 9 0 14 0 14 -37 10 -38 10 -602 156 -602 156 -363 80
-363 80 -17 5 -18 5 -10 40 -11 39 -24 6 -25 6 0 17 0 16 35 164 35 163 0 14
0 14 -15 0 -15 0 0 -4 0 -4 -40 -187 -40 -187 0 -2 0 -2 -71 9 -72 9 -8 -13
-8 -14 -6 -37 -7 -38 -11 0 -12 0 -717 177 -717 177 -6 -6 -6 -6 -94 -338 -95
-339 0 -12 0 -13 14 0 14 0 14 48 14 47 79 287 80 288 11 0 12 0 707 -175 707
-175 14 0 13 0 11 43 11 42 3 11 4 10 83 -10 84 -11 11 -7 12 -8 6 -34 7 -34
22 -5 22 -6 385 -85 385 -86 610 -159 610 -158 3 -16 3 -15 155 -38 155 -39 9
15 9 14 168 -39 168 -38 33 -9 32 -9 0 -14 0 -14 33 -9 32 -9 118 -29 118 -28
8 13 8 13 45 -7 45 -7 6 21 5 21 14 0 13 0 120 -28 120 -28 3 -21 3 -21 40
-16 39 -16 14 0 15 0 21 27 21 27 34 -2 33 -3 19 83 20 83 383 1657 383 1657
-57 70 -58 71 -13 0 -14 0 -20 -29 -21 -28 -145 35 -145 36 0 27 0 27 -25 6
-25 6 -992 230 -993 229 -549 135 -549 136 -13 0 -13 0 -27 -35z"/>
<path d="M6326 6715 l-16 -64 0 -11 0 -10 15 0 14 0 11 43 11 42 4 13 4 12 13
0 13 0 70 -19 70 -18 -3 -51 -3 -52 15 0 14 0 11 50 11 51 0 13 0 14 -105 26
-104 26 -14 0 -15 0 -16 -65z"/>
<path d="M6216 6583 l-16 -47 0 -12 0 -13 38 -10 37 -11 17 0 16 0 16 47 16
47 0 12 0 12 -44 11 -45 11 -9 0 -10 0 -16 -47z m78 -1 l5 -9 -6 -21 -5 -22
-24 0 -24 0 0 8 0 7 6 23 6 22 19 0 18 0 5 -8z"/>
<path d="M7001 6592 l-11 -38 -6 -32 -6 -32 15 0 16 0 10 38 11 37 0 13 0 12
23 0 22 -1 65 -14 65 -14 18 -1 17 0 0 15 0 15 -4 0 -4 0 -97 20 -97 20 -14 0
-13 0 -10 -38z"/>
<path d="M6270 6467 l0 -3 -190 -799 -190 -800 0 -12 0 -13 14 0 14 0 7 28 7
27 184 775 184 774 0 13 0 13 -15 0 -15 0 0 -3z"/>
<path d="M7096 6105 l-76 -305 0 -15 0 -15 14 0 14 0 72 293 73 292 6 11 6 11
115 -32 115 -31 0 -40 0 -39 -22 -3 -22 -3 -34 -147 -35 -147 -58 -247 -58
-248 6 -5 5 -5 281 -67 282 -67 5 5 5 6 85 362 85 363 -3 78 -2 78 7 7 7 8 86
-24 85 -24 0 -12 0 -12 -110 -499 -110 -498 0 -12 0 -12 15 0 15 0 0 17 0 16
5 -5 5 -5 -12 -52 -11 -51 -28 0 -27 0 -20 -87 -20 -88 -47 -215 -47 -215 -8
-8 -8 -9 -484 126 -484 126 -11 0 -11 0 -22 -92 -23 -93 -7 -8 -7 -8 -94 25
-94 26 -12 0 -13 0 0 -15 0 -14 43 -11 42 -12 70 -19 70 -19 11 0 12 0 22 93
23 92 7 8 7 8 492 -127 491 -128 5 6 5 5 68 304 67 304 28 3 27 3 10 42 11 42
10 35 9 35 0 13 0 12 -15 0 -15 0 0 17 0 17 107 484 106 484 -10 6 -11 7 -106
29 -106 29 -6 -5 -5 -6 -15 -58 -16 -57 13 -24 13 -23 -83 -358 -83 -357 -8
-9 -8 -8 -244 57 -243 57 -9 8 -8 8 76 329 77 328 10 36 9 37 25 6 25 6 0 65
0 64 -37 10 -38 11 -90 25 -90 25 -21 0 -22 0 -76 -305z"/>
<path d="M1490 5318 l-11 -43 -10 -35 -9 -35 0 -12 0 -13 15 0 14 0 11 43 11
42 10 35 9 35 0 13 0 12 -15 0 -14 0 -11 -42z"/>
<path d="M6152 5078 l-9 -33 -33 -128 -33 -127 6 -6 6 -6 193 -49 193 -48 18
-1 17 0 0 14 0 14 -192 47 -193 48 -4 3 -4 3 34 131 34 130 15 0 15 0 105 -20
105 -20 12 0 13 0 0 15 0 15 -3 0 -3 0 -129 25 -130 25 -12 0 -12 0 -9 -32z"/>
</g>
</svg>
